<svg xmlns="http://www.w3.org/2000/svg" width="500" height="500" viewBox="0 0 500 500" role="img" aria-labelledby="title">
<title id="title">Twinkle Twinkle Little Star cover artwork</title>
<rect width="500" height="500" fill="#112f50"/>
<path d="M0 391c99-68 184-46 250-10 83 44 155 32 250-23v142H0z" fill="#e25982"/>
<circle cx="252" cy="227" r="154" fill="#f9d879"/>
<circle cx="310" cy="174" r="151" fill="#112f50"/>
<g fill="#fff2be"><path d="m79 109 8 20 20 8-20 8-8 20-8-20-20-8 20-8z"/><path d="m414 99 6 17 18 6-18 7-6 17-7-17-17-7 17-6z"/><path d="m367 317 7 20 20 7-20 8-7 19-8-19-19-8 19-7z"/><circle cx="137" cy="276" r="5"/><circle cx="384" cy="240" r="4"/><circle cx="194" cy="61" r="4"/></g>
<text x="29" y="393" fill="#fff2be" font-family="Impact,Arial,sans-serif" font-size="83" font-weight="900" letter-spacing="-3">TWINKLE</text>
<text x="31" y="462" fill="#112f50" font-family="Impact,Arial,sans-serif" font-size="67" font-weight="900" letter-spacing="-2">LITTLE STAR</text>
<text x="28" y="50" fill="#fff2be" font-family="monospace" font-size="14" letter-spacing="3">PLAY. SESSION 02</text>
</svg>
